<svg height="25" width="25" xmlns="http://www.w3.org/2000/svg"><g fill="none" fill-rule="evenodd"><path d="M0 .467V23.79c0 .374.307.678.685.678h10.27a.682.682 0 0 0 .686-.678V10.094c0-.293-.127-.571-.35-.765L.711.148A.429.429 0 0 0 0 .467M13.533 24.362l10.68-9.22c.224-.193.352-.472.352-.766V.426c0-.366-.437-.56-.716-.32L13.17 9.323a1.013 1.013 0 0 0-.352.766v13.953c0 .366.437.56.716.32M24.565 24.035v-6.58c0-.372-.417-.57-.684-.326l-3.363 3.096c-.3.275-.3.765 0 1.04l3.363 3.095c.267.245.684.047.684-.325" fill="#e82e3a" class="main-nav__logo-path"></path></g></svg>